<svg xmlns="http://www.w3.org/2000/svg" xmlns:xlink="http://www.w3.org/1999/xlink" width="149" height="56" viewBox="0 0 149 56">
  <defs>
    <clipPath id="clip-path">
      <rect id="Rectangle_22372" data-name="Rectangle 22372" width="148.964" height="56" fill="none"/>
    </clipPath>
  </defs>
  <g id="Group_39268" data-name="Group 39268" transform="translate(-1177 -12)">
    <g id="Rectangle_22374" data-name="Rectangle 22374" transform="translate(1177 12)" fill="#fff" stroke="#707070" stroke-width="1" opacity="0">
      <rect width="149" height="56" stroke="none"/>
      <rect x="0.5" y="0.5" width="148" height="55" fill="none"/>
    </g>
    <g id="Group_7" data-name="Group 7" transform="translate(1177.036 12)">
      <g id="Group_6" data-name="Group 6" transform="translate(0 0)" clip-path="url(#clip-path)">
        <path id="Path_1" data-name="Path 1" d="M18.263,10.037A14.478,14.478,0,1,0,32.741,24.515,14.492,14.492,0,0,0,18.263,10.037m0,24.271a9.793,9.793,0,1,1,9.791-9.793,9.8,9.8,0,0,1-9.791,9.793" transform="translate(3.124 8.284)" fill="#fff"/>
        <path id="Path_2" data-name="Path 2" d="M33.3,26.3a2.331,2.331,0,0,0-3.1-.181,18.474,18.474,0,0,1-23.094,0,2.343,2.343,0,0,0-2.919,3.665,23.164,23.164,0,0,0,28.935,0A2.344,2.344,0,0,0,33.3,26.3Z" transform="translate(2.735 21.141)" fill="#fff"/>
        <path id="Path_3" data-name="Path 3" d="M42.772,22.349v.009a2.344,2.344,0,0,1-4,1.657L21.387,6.637,4,24.021A2.344,2.344,0,0,1,.686,20.706L21.394,0,42.086,20.692a2.341,2.341,0,0,1,.686,1.657" transform="translate(0 0)" fill="#d70060"/>
        <path id="Path_4" data-name="Path 4" d="M34.452,23.753h6.9V8.2H38.122V21.006h-2.7q-3.392,0-3.393-3.116V13.9H28.8v4.5a5.536,5.536,0,0,0,1.362,3.831,5.486,5.486,0,0,0,4.293,1.524" transform="translate(23.766 6.766)" fill="#fff"/>
        <rect id="Rectangle_22367" data-name="Rectangle 22367" width="3.324" height="2.908" transform="translate(56.971 12.078)" fill="#fff"/>
        <path id="Path_5" data-name="Path 5" d="M40.559,22.463a7.388,7.388,0,0,0,4.5-1.592,3.394,3.394,0,0,0,1.741,1.21,10.153,10.153,0,0,0,3.1.381H73.424V4.783H70.215V19.694H49.907a3.222,3.222,0,0,1-1.615-.336,1.985,1.985,0,0,1-.854-1.073l-2.886-7.5H41.09l3.07,7.986a7.925,7.925,0,0,1-4.087.924H36.5l1.245,2.769Z" transform="translate(30.122 3.948)" fill="#fff"/>
        <rect id="Rectangle_22368" data-name="Rectangle 22368" width="3.324" height="2.908" transform="translate(140.124 10.092)" fill="#fff"/>
        <rect id="Rectangle_22369" data-name="Rectangle 22369" width="3.324" height="2.908" transform="translate(144.74 10.092)" fill="#fff"/>
        <path id="Path_6" data-name="Path 6" d="M96.273,8.071a6.863,6.863,0,0,0-3.22.75,5.819,5.819,0,0,0-2.262,2.021,4.953,4.953,0,0,0-.82,2.745,4.08,4.08,0,0,0,1.477,3.393H69.179V8.533a32.858,32.858,0,0,0-4.592-.462,6.832,6.832,0,0,0-3.289.763,5.507,5.507,0,0,0-2.2,2.11,5.9,5.9,0,0,0-.783,3.014A6.19,6.19,0,0,0,59.035,17a5.092,5.092,0,0,0,2.008,2.03,5.78,5.78,0,0,0,2.873.716h.323l1.247-2.769H64.471a2.686,2.686,0,0,1-2.09-.8A3.117,3.117,0,0,1,61.655,14q0-3.162,2.816-3.161A7.579,7.579,0,0,1,65.948,11v7.962a3.19,3.19,0,0,1-.438,1.789,2.675,2.675,0,0,1-1.281.993,9.7,9.7,0,0,1-2.274.518l1.292,2.886a9,9,0,0,0,4.189-1.615,5.083,5.083,0,0,0,1.7-3.786h31.709V8.533a31.973,31.973,0,0,0-4.569-.462m1.338,8.909h-1.2a3.258,3.258,0,0,1-2.214-.854A2.787,2.787,0,0,1,93.342,14q0-3.162,2.815-3.161A7.489,7.489,0,0,1,97.611,11Z" transform="translate(48.122 6.661)" fill="#fff"/>
        <rect id="Rectangle_22370" data-name="Rectangle 22370" width="2.189" height="2.353" transform="translate(58.084 36.668)" fill="#d70060"/>
        <rect id="Rectangle_22371" data-name="Rectangle 22371" width="2.189" height="2.353" transform="translate(62.463 36.668)" fill="#d70060"/>
        <path id="Path_7" data-name="Path 7" d="M79.478,31.383h-2.26A4.2,4.2,0,0,1,75.5,31.01a3.8,3.8,0,0,1-1.374-1,2.3,2.3,0,0,1-.582-1.374v-6.66H71.513v6.336a3.074,3.074,0,0,1-.827,2.2,2.777,2.777,0,0,1-2.108.874H66.621V21.973H64.573v9.409H49.527a2.982,2.982,0,0,1-2.888-1.537,4.441,4.441,0,0,0,.186-1.351V21.973H44.8v6.336a3.1,3.1,0,0,1-.816,2.2,2.741,2.741,0,0,1-2.1.874H34.574a3.951,3.951,0,0,1-2.818-.885,2.983,2.983,0,0,1-.933-2.26V25.4H28.8v3.028a4.807,4.807,0,0,0,.653,2.515,4.335,4.335,0,0,0,1.862,1.688,6.39,6.39,0,0,0,2.842.593H42.26a4.278,4.278,0,0,0,3.632-1.84,4.425,4.425,0,0,0,2.857,1.772.206.206,0,0,0,.172.068H68.95a4.265,4.265,0,0,0,2.26-.593,4.593,4.593,0,0,0,1.561-1.55,4.681,4.681,0,0,0,1.9,1.608,6.051,6.051,0,0,0,2.574.535H81.5V21H79.478Z" transform="translate(23.766 17.327)" fill="#d70060"/>
        <path id="Path_8" data-name="Path 8" d="M96.108,21.277a9.138,9.138,0,0,0-4.2-.933H88.738l.768,1.84h2.189A6.037,6.037,0,0,1,96.366,23.9a6.923,6.923,0,0,1,1.572,4.857V31.92H95.119V28.426a5.014,5.014,0,0,0-.5-2.154,4.209,4.209,0,0,0-1.561-1.747,4.681,4.681,0,0,0-2.6-.688,5.064,5.064,0,0,0-2.608.653,4.475,4.475,0,0,0-1.712,1.734,4.749,4.749,0,0,0-.6,2.318,3.7,3.7,0,0,0,1.7,3.377H69.337V22.79c-.327-.062-.544-.1-.652-.117a18.541,18.541,0,0,0-3.355-.4,6.174,6.174,0,0,0-3.2.8,5.391,5.391,0,0,0-2.074,2.13,5.923,5.923,0,0,0-.71,2.842,6.227,6.227,0,0,0,.663,2.864,5.075,5.075,0,0,0,1.935,2.074,5.7,5.7,0,0,0,3.015.768h.768l.816-1.84H65.075a3.388,3.388,0,0,1-2.68-1.082,3.855,3.855,0,0,1-.955-2.645,4.3,4.3,0,0,1,1-2.922,3.476,3.476,0,0,1,2.771-1.154,9.5,9.5,0,0,1,2.074.257V33.76a2.971,2.971,0,0,1-1.013,2.481,6.721,6.721,0,0,1-3.132,1.13l.838,1.84a7.4,7.4,0,0,0,3.983-1.736,4.976,4.976,0,0,0,1.374-3.714h30.65V28.682a9.448,9.448,0,0,0-1.026-4.611,6.635,6.635,0,0,0-2.853-2.795M93.255,31.92h-2.1A3.67,3.67,0,0,1,88.539,31a3.007,3.007,0,0,1-.92-2.247,3.219,3.219,0,0,1,.757-2.225,2.676,2.676,0,0,1,2.106-.851,2.6,2.6,0,0,1,2.039.816,3.016,3.016,0,0,1,.734,2.1Z" transform="translate(48.977 16.79)" fill="#d70060"/>
      </g>
    </g>
  </g>
</svg>
