<svg xmlns="http://www.w3.org/2000/svg" width="40" height="40" viewBox="0 0 40 40">
  <g id="Group_39299" data-name="Group 39299" transform="translate(-833 -1857)">
    <g id="Rectangle_23061" data-name="Rectangle 23061" transform="translate(833 1857)" fill="#d70060" stroke="#707070" stroke-width="1" opacity="0">
      <rect width="40" height="40" stroke="none"/>
      <rect x="0.5" y="0.5" width="39" height="39" fill="none"/>
    </g>
    <path id="map-marker-home" d="M27.611,4.4A15,15,0,1,0,6.4,25.629L17,35.994,27.611,25.616a15,15,0,0,0,0-21.216ZM24.5,21H9.5V14.112a3.77,3.77,0,0,1,1.475-2.98l3.751-2.866a3.761,3.761,0,0,1,4.554,0l3.751,2.866a3.773,3.773,0,0,1,1.473,2.98Zm-3.3-7.482a.75.75,0,0,1,.3.6V18h-3V15h-3v3h-3V14.112a.75.75,0,0,1,.3-.6l3.751-2.864a.75.75,0,0,1,.912,0Z" transform="translate(835.996 1858.99)" fill="#d70060"/>
  </g>
</svg>
