<svg id="Group_37785" data-name="Group 37785" xmlns="http://www.w3.org/2000/svg" width="20" height="20" viewBox="0 0 20 20">
  <g id="Rectangle_22843" data-name="Rectangle 22843" fill="#737373" stroke="#707070" stroke-width="1" opacity="0">
    <rect width="20" height="20" stroke="none"/>
    <rect x="0.5" y="0.5" width="19" height="19" fill="none"/>
  </g>
  <g id="security-camera" transform="translate(2 3)">
    <path id="Path_31633" data-name="Path 31633" d="M.2,37.319l.983-.671L.914,36.43a.469.469,0,0,1,.018-.746l9.013-6.509a.937.937,0,0,1,1.28.173l2.962,3.687A.938.938,0,0,1,14,34.384L11.75,35.992l.9,1.284a.469.469,0,0,1-.116.655l-.322.224a2.835,2.835,0,0,0,1.968.794h.879V37.934a.469.469,0,0,1,.938,0v4.781a.469.469,0,0,1-.938,0v-.953h-.635a6.015,6.015,0,0,1-4.5-2.02l-.469.326a.469.469,0,0,1-.655-.121L7.958,38.7,6.027,40.079a.469.469,0,0,1-.565-.015l-.7-.559L2.944,40.814a.469.469,0,0,1-.639-.086L.1,38A.469.469,0,0,1,.2,37.319Zm14.223,3.506h.635v-.937h-.879A3.772,3.772,0,0,1,11.435,38.7l-.727.5a5.111,5.111,0,0,0,3.719,1.622Zm-5.111-1.8,2.3-1.6-.629-.894L8.721,38.155Zm-3.545.082,7.686-5.489-2.962-3.687L1.981,36.082Zm-3.015.684L4,38.9,1.953,37.26l-.8.547Z" transform="translate(0 -28.996)" fill="#737373"/>
    <ellipse id="Ellipse_805" data-name="Ellipse 805" cx="1" cy="0.5" rx="1" ry="0.5" transform="translate(3 6)" fill="#737373"/>
  </g>
</svg>
