<svg xmlns="http://www.w3.org/2000/svg" width="20" height="20" viewBox="0 0 20 20">
  <g id="central_air_conditioner_mob" transform="translate(-900 -1275)">
    <g id="Rectangle_13442" data-name="Rectangle 13442" transform="translate(900 1275)" fill="#737373" stroke="#707070" stroke-width="1" opacity="0">
      <rect width="20" height="20" stroke="none"/>
      <rect x="0.5" y="0.5" width="19" height="19" fill="none"/>
    </g>
    <g id="Rectangle_22837" data-name="Rectangle 22837" transform="translate(902 1277)" fill="#737373" stroke="#707070" stroke-width="1" opacity="0">
      <rect width="16" height="16" stroke="none"/>
      <rect x="0.5" y="0.5" width="15" height="15" fill="none"/>
    </g>
    <path id="broom" d="M16.339,2.191a.691.691,0,0,0-.975,0L12.116,5.439,11.9,5.225A3.414,3.414,0,0,0,7.516,4.9a11.329,11.329,0,0,1-3.1,1.655L3,6.968a3.433,3.433,0,0,0-2.122,1.8A3.39,3.39,0,0,0,.786,11.5,8.828,8.828,0,0,0,9.043,17h.63a.689.689,0,0,0,.394-.124,10.422,10.422,0,0,0,4.574-6.96,3.428,3.428,0,0,0-.991-2.982L13.1,6.4l3.236-3.236a.691.691,0,0,0,0-.975Zm-6.89,13.43H9.04A7.7,7.7,0,0,1,6.1,15.043l.007,0a7.871,7.871,0,0,0,2.966-2.59l.353-.519a.689.689,0,0,0-1.138-.776l-.353.519A6.5,6.5,0,0,1,5.49,13.809l-.853.429a7.333,7.333,0,0,1-1.761-1.752A7.925,7.925,0,0,0,5.86,10.67.689.689,0,1,0,4.9,9.684a6.556,6.556,0,0,1-2.713,1.582c-.042-.092-.087-.182-.124-.277a1.981,1.981,0,0,1,.058-1.623A2.061,2.061,0,0,1,3.387,8.29L4.8,7.876A10.474,10.474,0,0,0,7.136,6.793l5.4,5.257a9.675,9.675,0,0,1-3.083,3.573ZM13.28,9.7a8.467,8.467,0,0,1-.211.946L8.317,6.019h0a2.053,2.053,0,0,1,1.2-.386,2.027,2.027,0,0,1,1.421.579l1.751,1.71A2.052,2.052,0,0,1,13.28,9.7Z" transform="translate(901.459 1275.01)" fill="#737373"/>
  </g>
</svg>
