<svg id="Group_38951" data-name="Group 38951" xmlns="http://www.w3.org/2000/svg" xmlns:xlink="http://www.w3.org/1999/xlink" width="30" height="40" viewBox="0 0 30 40">
  <defs>
    <clipPath id="clip-path">
      <rect id="Rectangle_22967" data-name="Rectangle 22967" width="30" height="40" fill="#2c1d65"/>
    </clipPath>
  </defs>
  <g id="Group_38950" data-name="Group 38950" clip-path="url(#clip-path)">
    <path id="Path_45736" data-name="Path 45736" d="M32.136,36.873c-9.11.9-9.8,1.906-10.339,17a.049.049,0,1,1-.1,0c-.536-15.1-1.229-16.1-10.339-17a.051.051,0,0,1,0-.1c9.11-.9,9.8-1.906,10.339-17a.049.049,0,1,1,.1,0c.535,15.1,1.229,16.1,10.339,17a.051.051,0,0,1,0,.1" transform="translate(-8.117 -13.927)" fill="#2c1d65"/>
    <path id="Path_45737" data-name="Path 45737" d="M75.991,9.761c-5.184.514-5.578,1.084-5.883,9.675a.028.028,0,0,1-.056,0c-.3-8.591-.7-9.162-5.883-9.675a.029.029,0,0,1,0-.058c5.184-.514,5.578-1.084,5.883-9.675a.028.028,0,0,1,.056,0c.3,8.591.7,9.162,5.883,9.675a.029.029,0,0,1,0,.058" transform="translate(-46.016 0)" fill="#2c1d65"/>
    <path id="Path_45738" data-name="Path 45738" d="M7.227,19.883c-3.162.313-3.4.662-3.589,5.9a.017.017,0,1,1-.034,0c-.186-5.241-.426-5.589-3.589-5.9a.018.018,0,0,1,0-.036c3.162-.313,3.4-.661,3.589-5.9a.017.017,0,1,1,.034,0c.186,5.241.426,5.589,3.589,5.9a.018.018,0,0,1,0,.036" transform="translate(0 -9.838)" fill="#2c1d65"/>
  </g>
</svg>
