<svg id="Group_38951" data-name="Group 38951" xmlns="http://www.w3.org/2000/svg" xmlns:xlink="http://www.w3.org/1999/xlink" width="30.559" height="39.212" viewBox="0 0 30.559 39.212">
  <defs>
    <clipPath id="clip-path">
      <rect id="Rectangle_22967" data-name="Rectangle 22967" width="30.559" height="39.212" fill="#fff"/>
    </clipPath>
  </defs>
  <g id="Group_38950" data-name="Group 38950" clip-path="url(#clip-path)">
    <path id="Path_45736" data-name="Path 45736" d="M32.524,36.535c-9.28.885-9.987,1.868-10.532,16.67a.05.05,0,0,1-.1,0c-.546-14.8-1.252-15.785-10.532-16.67a.05.05,0,0,1,0-.1c9.28-.885,9.986-1.869,10.532-16.67a.05.05,0,0,1,.1,0c.545,14.8,1.252,15.785,10.532,16.67a.05.05,0,0,1,0,.1" transform="translate(-8.058 -14.041)" fill="#fff"/>
    <path id="Path_45737" data-name="Path 45737" d="M76.212,9.569c-5.28.5-5.682,1.063-5.992,9.485a.029.029,0,0,1-.057,0c-.31-8.421-.712-8.981-5.992-9.485a.029.029,0,0,1,0-.057c5.28-.5,5.682-1.063,5.992-9.485a.029.029,0,0,1,.057,0c.31,8.421.712,8.981,5.992,9.485a.029.029,0,0,1,0,.057" transform="translate(-45.679 0)" fill="#fff"/>
    <path id="Path_45738" data-name="Path 45738" d="M7.362,19.766c-3.221.307-3.467.649-3.656,5.786a.017.017,0,0,1-.035,0c-.189-5.138-.434-5.479-3.656-5.786a.017.017,0,0,1,0-.035c3.221-.307,3.466-.648,3.656-5.786a.017.017,0,0,1,.035,0c.189,5.138.434,5.479,3.656,5.786a.018.018,0,0,1,0,.035" transform="translate(0 -9.919)" fill="#fff"/>
  </g>
</svg>
