<svg id="Group_38953" data-name="Group 38953" xmlns="http://www.w3.org/2000/svg" xmlns:xlink="http://www.w3.org/1999/xlink" width="39.198" height="40" viewBox="0 0 39.198 40">
  <defs>
    <clipPath id="clip-path">
      <rect id="Rectangle_22968" data-name="Rectangle 22968" width="39.198" height="40" fill="#fff"/>
    </clipPath>
  </defs>
  <g id="Group_38952" data-name="Group 38952" clip-path="url(#clip-path)">
    <path id="Path_45739" data-name="Path 45739" d="M38.449,20C25.476,23.115,23.2,25.641,20.381,40c-2.814-14.359-5.1-16.885-18.068-20,12.972-3.115,15.253-5.641,18.068-20,2.814,14.359,5.1,16.885,18.068,20" transform="translate(-1.539)" fill="#fff"/>
    <path id="Path_45740" data-name="Path 45740" d="M94.457,8.547c-4.086.982-4.806,1.778-5.692,6.3-.887-4.523-1.606-5.319-5.692-6.3,4.086-.981,4.8-1.777,5.692-6.3.886,4.524,1.605,5.319,5.692,6.3" transform="translate(-55.259 -1.494)" fill="#fff"/>
    <path id="Path_45741" data-name="Path 45741" d="M6.91,84.133c-2.48.6-2.917,1.078-3.455,3.824C2.917,85.212,2.48,84.729,0,84.133c2.48-.6,2.917-1.079,3.455-3.824.538,2.746.974,3.229,3.455,3.824" transform="translate(0 -53.42)" fill="#fff"/>
  </g>
</svg>
