<svg id="Group_39689" data-name="Group 39689" xmlns="http://www.w3.org/2000/svg" xmlns:xlink="http://www.w3.org/1999/xlink" width="82" height="24" viewBox="0 0 82 24">
  <defs>
    <clipPath id="clip-path">
      <rect id="Rectangle_23115" data-name="Rectangle 23115" width="82" height="24" fill="none"/>
    </clipPath>
  </defs>
  <g id="Group_39688" data-name="Group 39688" clip-path="url(#clip-path)">
    <path id="Path_46041" data-name="Path 46041" d="M291.862,39.4V26.717h2.16v1.017a3.492,3.492,0,0,1,2.84-1.262c2.488,0,4.273,1.975,4.273,4.8s-1.8,4.838-4.273,4.838a3.493,3.493,0,0,1-2.84-1.285V39.4h-2.16Zm2.16-9.289v2.337a2.672,2.672,0,0,0,2.465,1.636c1.432,0,2.395-1.063,2.395-2.816,0-1.729-.963-2.781-2.395-2.781a2.643,2.643,0,0,0-2.465,1.624" transform="translate(-238.922 -21.67)" fill="#279c68"/>
    <path id="Path_46042" data-name="Path 46042" d="M350.415,34.293a2.7,2.7,0,0,1,2.559-2.816l3.674-.467v-.456a.737.737,0,0,0-.8-.841h-4.613V27.761h4.7c1.866,0,2.887.911,2.887,2.524v6.6h-2.183v-1.11a3.542,3.542,0,0,1-3.028,1.39,2.888,2.888,0,0,1-3.193-2.874m3.721,1.122a2.689,2.689,0,0,0,2.5-1.531V32.739l-2.805.386c-.775.105-1.209.514-1.209,1.18,0,.713.552,1.11,1.514,1.11" transform="translate(-286.806 -22.725)" fill="#279c68"/>
    <path id="Path_46043" data-name="Path 46043" d="M403.324,38.5H404.9a1,1,0,0,0,1.068-.806l.282-.806-3.334-9.126h2.254l2.078,6.357h.047l1.984-6.357h2.218l-3.65,10.481c-.493,1.437-1.15,2.208-2.758,2.208h-1.761Z" transform="translate(-329.737 -22.724)" fill="#279c68"/>
    <path id="Path_46044" data-name="Path 46044" d="M7.923,24a8.434,8.434,0,0,0,5.939-2.092,5.407,5.407,0,0,0,1.62-3.926,5.072,5.072,0,0,0-1.5-3.657A7.864,7.864,0,0,0,9.848,12.3l-2.887-.561c-1.2-.222-1.878-.818-1.878-1.647,0-1.087,1.056-1.834,2.747-1.834a3.573,3.573,0,0,1,2.559.935,2.823,2.823,0,0,1,.716,1.531l4.167-.935a5.112,5.112,0,0,0-1.538-3.108,8.439,8.439,0,0,0-5.951-2.2,8.167,8.167,0,0,0-5.528,1.94A5.447,5.447,0,0,0,.493,10.469,4.638,4.638,0,0,0,1.843,13.9a8.238,8.238,0,0,0,3.944,1.986l2.852.678c1.432.339,2.066.865,2.066,1.8,0,1.157-1.056,1.834-2.782,1.834a3.873,3.873,0,0,1-2.887-1.087A2.6,2.6,0,0,1,4.284,17.4L0,18.333a5.324,5.324,0,0,0,1.62,3.3A8.715,8.715,0,0,0,7.923,24m31.715,0a8.932,8.932,0,0,0,6.385-2.43A8.3,8.3,0,0,0,48.277,17.8l-4.39-1.461a4.148,4.148,0,0,1-1.162,1.94,4.279,4.279,0,0,1-3.087,1.157,4.762,4.762,0,0,1-3.345-1.344,5.407,5.407,0,0,1-1.4-3.856,5.348,5.348,0,0,1,1.4-3.856A4.58,4.58,0,0,1,39.6,9.067a3.993,3.993,0,0,1,2.97,1.122A4.755,4.755,0,0,1,43.7,12.175l4.472-1.5a8.5,8.5,0,0,0-2.1-3.7,9.167,9.167,0,0,0-6.573-2.5,9.513,9.513,0,0,0-6.8,2.734,9.88,9.88,0,0,0-2.782,7.034,9.807,9.807,0,0,0,2.852,7.034A9.618,9.618,0,0,0,39.638,24M24.462,24a6.3,6.3,0,0,0,3.944-1.122V18.835a4.352,4.352,0,0,1-2.524.748,2.627,2.627,0,0,1-1.878-.6,2.6,2.6,0,0,1-.563-1.869V0H18.475V5.048h9.918V9.838H18.475v8.495a5.7,5.7,0,0,0,1.467,4.078A6.3,6.3,0,0,0,24.462,24" transform="translate(-0.244)" fill="#352172"/>
  </g>
</svg>
