<svg xmlns="http://www.w3.org/2000/svg" width="36.992" height="40.786" viewBox="0 0 36.992 40.786">
  <g id="calendar" transform="translate(-2.25 -1.25)">
    <path id="Path_47216" data-name="Path 47216" d="M8.673,9.787A1.433,1.433,0,0,1,7.25,8.364V2.673a1.423,1.423,0,1,1,2.846,0V8.364A1.433,1.433,0,0,1,8.673,9.787Z" transform="translate(4.485 0)" fill="#ececec"/>
    <path id="Path_47217" data-name="Path 47217" d="M16.673,9.787A1.433,1.433,0,0,1,15.25,8.364V2.673a1.423,1.423,0,1,1,2.846,0V8.364A1.433,1.433,0,0,1,16.673,9.787Z" transform="translate(11.661 0)" fill="#ececec"/>
    <path id="Path_47218" data-name="Path 47218" d="M9.4,16.289a1.888,1.888,0,0,1-.721-.152A1.821,1.821,0,0,1,7.5,14.392a1.888,1.888,0,0,1,.152-.721,2.191,2.191,0,0,1,.4-.626,1.958,1.958,0,0,1,.626-.4,1.937,1.937,0,0,1,2.068.4,2,2,0,0,1,.55,1.347,2.851,2.851,0,0,1-.038.379,1.206,1.206,0,0,1-.114.341,1.436,1.436,0,0,1-.171.341,2.989,2.989,0,0,1-.228.285A2,2,0,0,1,9.4,16.289Z" transform="translate(4.709 10.096)" fill="#ececec"/>
    <path id="Path_47219" data-name="Path 47219" d="M12.9,16.293a1.888,1.888,0,0,1-.721-.152A1.82,1.82,0,0,1,11,14.4a1.888,1.888,0,0,1,.152-.721,2.191,2.191,0,0,1,.4-.626,1.958,1.958,0,0,1,.626-.4,1.9,1.9,0,0,1,2.068.4,2,2,0,0,1,.55,1.347,2.851,2.851,0,0,1-.038.379,1.206,1.206,0,0,1-.114.341,1.436,1.436,0,0,1-.171.341,2.989,2.989,0,0,1-.228.285A2,2,0,0,1,12.9,16.293Z" transform="translate(7.849 10.092)" fill="#ececec"/>
    <path id="Path_47220" data-name="Path 47220" d="M16.4,16.293a1.888,1.888,0,0,1-.721-.152,1.958,1.958,0,0,1-.626-.4l-.228-.285a1.436,1.436,0,0,1-.171-.341,1.206,1.206,0,0,1-.114-.341A2.851,2.851,0,0,1,14.5,14.4a2,2,0,0,1,.55-1.347,1.958,1.958,0,0,1,.626-.4,1.9,1.9,0,0,1,2.068.4,2,2,0,0,1,.55,1.347,2.851,2.851,0,0,1-.038.379,1.206,1.206,0,0,1-.114.341,1.436,1.436,0,0,1-.171.341,2.989,2.989,0,0,1-.228.285A2,2,0,0,1,16.4,16.293Z" transform="translate(10.988 10.092)" fill="#ececec"/>
    <path id="Path_47221" data-name="Path 47221" d="M9.4,19.783a1.888,1.888,0,0,1-.721-.152,2.191,2.191,0,0,1-.626-.4,2,2,0,0,1-.55-1.347,1.888,1.888,0,0,1,.152-.721,1.77,1.77,0,0,1,.4-.626,1.986,1.986,0,0,1,2.694,0A1.9,1.9,0,0,1,9.4,19.783Z" transform="translate(4.709 13.242)" fill="#ececec"/>
    <path id="Path_47222" data-name="Path 47222" d="M12.9,19.783a1.879,1.879,0,0,1-1.9-1.9,1.888,1.888,0,0,1,.152-.721,1.77,1.77,0,0,1,.4-.626,1.986,1.986,0,0,1,2.694,0,1.77,1.77,0,0,1,.4.626,1.888,1.888,0,0,1,.152.721,1.879,1.879,0,0,1-1.9,1.9Z" transform="translate(7.849 13.242)" fill="#ececec"/>
    <path id="Path_47223" data-name="Path 47223" d="M16.4,19.795a2,2,0,0,1-1.347-.55,1.771,1.771,0,0,1-.4-.626,1.788,1.788,0,0,1,0-1.442,1.771,1.771,0,0,1,.4-.626,1.894,1.894,0,0,1,1.707-.512,1.144,1.144,0,0,1,.36.114,1.436,1.436,0,0,1,.341.171,2.989,2.989,0,0,1,.285.228A1.9,1.9,0,0,1,16.4,19.795Z" transform="translate(10.988 13.23)" fill="#ececec"/>
    <path id="Path_47224" data-name="Path 47224" d="M36.422,11.185H4.173a1.423,1.423,0,0,1,0-2.846H36.422a1.423,1.423,0,1,1,0,2.846Z" transform="translate(0.449 6.36)" fill="#ececec"/>
    <path id="Path_47225" data-name="Path 47225" d="M28.334,40.69H13.158C6.234,40.69,2.25,36.706,2.25,29.782V13.658C2.25,6.734,6.234,2.75,13.158,2.75H28.334c6.924,0,10.908,3.984,10.908,10.908V29.782C39.242,36.706,35.258,40.69,28.334,40.69ZM13.158,5.6C7.732,5.6,5.1,8.232,5.1,13.658V29.782c0,5.425,2.637,8.062,8.062,8.062H28.334c5.425,0,8.062-2.637,8.062-8.062V13.658c0-5.425-2.637-8.062-8.062-8.062Z" transform="translate(0 1.346)" fill="#ececec"/>
  </g>
</svg>
