<svg xmlns="http://www.w3.org/2000/svg" width="41.5" height="41.429" viewBox="0 0 41.5 41.429">
  <g id="routing" transform="translate(-1.221 -1.25)">
    <path id="Path_47210" data-name="Path 47210" d="M9.408,19.556a5.49,5.49,0,0,1-3.815-1.522C2.048,14.661.622,10.981,1.45,7.378A7.956,7.956,0,0,1,9.408,1.25a7.962,7.962,0,0,1,7.958,6.128c.829,3.6-.617,7.284-4.143,10.656A5.457,5.457,0,0,1,9.408,19.556ZM4.264,8.033c-.732,3.218,1.407,6.07,3.334,7.9a2.637,2.637,0,0,0,3.642,0c1.927-1.831,4.066-4.682,3.314-7.92A5.055,5.055,0,0,0,9.428,4.14,5.093,5.093,0,0,0,4.264,8.033Z" transform="translate(0)" fill="#ececec"/>
    <path id="Path_47211" data-name="Path 47211" d="M6.437,8.054a1.927,1.927,0,0,1,0-3.854h.019a1.927,1.927,0,1,1-.019,3.854Z" transform="translate(3.049 2.734)" fill="#ececec"/>
    <path id="Path_47212" data-name="Path 47212" d="M22.45,31.565a5.57,5.57,0,0,1-3.835-1.522c-3.565-3.372-5.01-7.053-4.162-10.675a8,8,0,0,1,8-6.128,8,8,0,0,1,8,6.128c.829,3.6-.617,7.3-4.181,10.656A5.393,5.393,0,0,1,22.45,31.565Zm0-15.415a5.114,5.114,0,0,0-5.183,3.892c-.751,3.218,1.407,6.089,3.334,7.92a2.666,2.666,0,0,0,3.68,0c1.927-1.831,4.085-4.682,3.334-7.9A5.05,5.05,0,0,0,22.45,16.15Z" transform="translate(12.047 11.114)" fill="#ececec"/>
    <path id="Path_47213" data-name="Path 47213" d="M19.457,20.054a1.927,1.927,0,1,1,0-3.854h.019a1.927,1.927,0,1,1-.019,3.854Z" transform="translate(15.117 13.857)" fill="#ececec"/>
    <path id="Path_47214" data-name="Path 47214" d="M17.034,34.117H11.87a5.3,5.3,0,0,1-3.488-9.288l15.4-13.469A2.4,2.4,0,0,0,22.2,7.14H17.034a1.445,1.445,0,0,1,0-2.89H22.2a5.3,5.3,0,0,1,3.488,9.288L10.29,27.007a2.4,2.4,0,0,0,1.58,4.22h5.164a1.445,1.445,0,0,1,0,2.89Z" transform="translate(4.957 2.781)" fill="#ececec"/>
    <path id="Path_47215" data-name="Path 47215" d="M17.034,34.117H11.87a5.3,5.3,0,0,1-3.488-9.288l15.4-13.469A2.4,2.4,0,0,0,22.2,7.14H17.034a1.445,1.445,0,0,1,0-2.89H22.2a5.3,5.3,0,0,1,3.488,9.288L10.29,27.007a2.4,2.4,0,0,0,1.58,4.22h5.164a1.445,1.445,0,0,1,0,2.89Z" transform="translate(4.957 2.781)" fill="#ececec"/>
  </g>
</svg>
