<svg xmlns="http://www.w3.org/2000/svg" width="40.904" height="40.904" viewBox="0 0 40.904 40.904">
  <g id="dollar-circle" transform="translate(-1.25 -1.25)">
    <path id="Path_47226" data-name="Path 47226" d="M18.355,27.2H13.579a5.76,5.76,0,0,1-5.65-5.86,1.427,1.427,0,1,1,2.854,0,2.912,2.912,0,0,0,2.8,3.006h4.775a2.372,2.372,0,0,0,2.264-2.435c0-1.655-.59-1.979-1.56-2.321l-7.667-2.7A4.761,4.761,0,0,1,7.91,11.869,5.207,5.207,0,0,1,13.028,6.58H17.8a5.76,5.76,0,0,1,5.65,5.86,1.427,1.427,0,1,1-2.854,0,2.912,2.912,0,0,0-2.8-3.006H13.028a2.372,2.372,0,0,0-2.264,2.435c0,1.655.59,1.979,1.56,2.321l7.667,2.7a4.761,4.761,0,0,1,3.482,5.023A5.231,5.231,0,0,1,18.355,27.2Z" transform="translate(6.011 4.81)" fill="#ececec"/>
    <path id="Path_47227" data-name="Path 47227" d="M12.677,30.934a1.437,1.437,0,0,1-1.427-1.427V6.677a1.427,1.427,0,1,1,2.854,0v22.83A1.437,1.437,0,0,1,12.677,30.934Z" transform="translate(9.025 3.61)" fill="#ececec"/>
    <path id="Path_47228" data-name="Path 47228" d="M21.7,42.154A20.452,20.452,0,1,1,42.154,21.7,20.469,20.469,0,0,1,21.7,42.154Zm0-38.05A17.6,17.6,0,1,0,39.3,21.7,17.619,17.619,0,0,0,21.7,4.1Z" transform="translate(0 0)" fill="#ececec"/>
  </g>
</svg>
