<svg id="Group_39691" data-name="Group 39691" xmlns="http://www.w3.org/2000/svg" xmlns:xlink="http://www.w3.org/1999/xlink" width="74.314" height="24" viewBox="0 0 74.314 24">
  <defs>
    <clipPath id="clip-path">
      <path id="Path_46045" data-name="Path 46045" d="M21.908.425l-6.25,15.8L13.129,2.791A2.8,2.8,0,0,0,10.36.425H.141L0,1.1A25.134,25.134,0,0,1,5.924,3.073,2.542,2.542,0,0,1,7.351,5.112l4.788,18.525h6.347L28.215.425Zm8.884,0L25.824,23.637H31.83L36.8.425ZM65.221,6.7l1.819,8.716H62.059ZM64.341.425a2.733,2.733,0,0,0-2.556,1.7l-9.011,21.51h6.3l1.253-3.468h7.7l.726,3.468h5.554L69.466.425ZM48.578,0C42.643,0,38.465,3.156,38.431,7.673c-.04,3.343,2.982,5.206,5.258,6.318,2.338,1.137,3.123,1.867,3.114,2.884-.018,1.558-1.866,2.245-3.595,2.272a12.553,12.553,0,0,1-6.167-1.467l-1.087,5.087A18.183,18.183,0,0,0,42.632,24c6.309,0,10.435-3.115,10.454-7.942.027-6.126-8.471-6.464-8.413-9.2.019-.832.812-1.717,2.547-1.944a11.336,11.336,0,0,1,5.92,1.038L54.2,1.029A16.13,16.13,0,0,0,48.578,0Z" fill="none"/>
    </clipPath>
    <linearGradient id="linear-gradient" y1="1" x2="0.005" y2="1" gradientUnits="objectBoundingBox">
      <stop offset="0" stop-color="#10174b"/>
      <stop offset="1" stop-color="#003e92"/>
    </linearGradient>
  </defs>
  <g id="Group_39690" data-name="Group 39690" clip-path="url(#clip-path)">
    <rect id="Rectangle_23116" data-name="Rectangle 23116" width="74.314" height="24" transform="translate(0 0)" fill="url(#linear-gradient)"/>
  </g>
</svg>
