<svg xmlns="http://www.w3.org/2000/svg" width="24" height="24" viewBox="0 0 24 24">
  <g id="Group_38855" data-name="Group 38855" transform="translate(395 -2641)">
    <g id="Rectangle_22936" data-name="Rectangle 22936" transform="translate(-395 2641)" fill="#2c1d65" stroke="#707070" stroke-width="1" opacity="0">
      <rect width="24" height="24" stroke="none"/>
      <rect x="0.5" y="0.5" width="23" height="23" fill="none"/>
    </g>
    <path id="wallet_1_" data-name="wallet (1)" d="M17.5,5.333H4.167A2.51,2.51,0,0,1,2.3,4.5a2.5,2.5,0,0,1,1.862-.834h15a.833.833,0,1,0,0-1.667h-15A4.167,4.167,0,0,0,0,6.167V14.5a4.167,4.167,0,0,0,4.167,4.167H17.5a2.5,2.5,0,0,0,2.5-2.5V7.833A2.5,2.5,0,0,0,17.5,5.333Zm.833,10.833A.834.834,0,0,1,17.5,17H4.167a2.5,2.5,0,0,1-2.5-2.5V6.165A4.177,4.177,0,0,0,4.167,7H17.5a.834.834,0,0,1,.833.833ZM16.667,12a.833.833,0,1,1-.833-.833A.834.834,0,0,1,16.667,12Z" transform="translate(-393 2642.667)" fill="#2c1d65"/>
  </g>
</svg>
