<svg xmlns="http://www.w3.org/2000/svg" xmlns:xlink="http://www.w3.org/1999/xlink" width="48" height="48" viewBox="0 0 48 48">
  <defs>
    <linearGradient id="linear-gradient" x1="0.167" y1="0.905" x2="0.917" y2="0.054" gradientUnits="objectBoundingBox">
      <stop offset="0" stop-color="#6844ee"/>
      <stop offset="1" stop-color="#2c1d65"/>
    </linearGradient>
  </defs>
  <g id="Group_40678" data-name="Group 40678" transform="translate(-1187 -2259)">
    <rect id="Rectangle_23043" data-name="Rectangle 23043" width="48" height="48" rx="12" transform="translate(1235 2259) rotate(90)" fill="url(#linear-gradient)"/>
    <g id="Group_39258" data-name="Group 39258" transform="translate(281 -137)">
      <g id="Rectangle_23038" data-name="Rectangle 23038" transform="translate(914 2404)" fill="#fff" stroke="#707070" stroke-width="1" opacity="0">
        <rect width="32" height="32" stroke="none"/>
        <rect x="0.5" y="0.5" width="31" height="31" fill="none"/>
      </g>
      <path id="wallet_1_" data-name="wallet (1)" d="M24.5,6.667H5.833A3.514,3.514,0,0,1,3.226,5.5,3.494,3.494,0,0,1,5.833,4.333h21a1.167,1.167,0,1,0,0-2.333h-21A5.834,5.834,0,0,0,0,7.833V19.5a5.834,5.834,0,0,0,5.833,5.833H24.5a3.5,3.5,0,0,0,3.5-3.5V10.167A3.5,3.5,0,0,0,24.5,6.667Zm1.167,15.167A1.168,1.168,0,0,1,24.5,23H5.833a3.5,3.5,0,0,1-3.5-3.5V7.831A5.847,5.847,0,0,0,5.833,9H24.5a1.168,1.168,0,0,1,1.167,1.167ZM23.333,16a1.167,1.167,0,1,1-1.167-1.167A1.167,1.167,0,0,1,23.333,16Z" transform="translate(916 2406.333)" fill="#fff"/>
    </g>
  </g>
</svg>
