<svg xmlns="http://www.w3.org/2000/svg" xmlns:xlink="http://www.w3.org/1999/xlink" width="48" height="48" viewBox="0 0 48 48">
  <defs>
    <linearGradient id="linear-gradient" x1="0.167" y1="0.905" x2="0.917" y2="0.054" gradientUnits="objectBoundingBox">
      <stop offset="0" stop-color="#6844ee"/>
      <stop offset="1" stop-color="#2c1d65"/>
    </linearGradient>
  </defs>
  <g id="Group_40676" data-name="Group 40676" transform="translate(-1183 -2268)">
    <rect id="Rectangle_23045" data-name="Rectangle 23045" width="48" height="48" rx="12" transform="translate(1231 2268) rotate(90)" fill="url(#linear-gradient)"/>
    <g id="Group_39258" data-name="Group 39258" transform="translate(277 -128)">
      <g id="Rectangle_23038" data-name="Rectangle 23038" transform="translate(914 2404)" fill="#fff" stroke="#707070" stroke-width="1" opacity="0">
        <rect width="32" height="32" stroke="none"/>
        <rect x="0.5" y="0.5" width="31" height="31" fill="none"/>
      </g>
      <g id="Group_39262" data-name="Group 39262" transform="translate(69 -138)">
        <g id="Rectangle_23044" data-name="Rectangle 23044" transform="translate(847 2544)" fill="#fff" stroke="#707070" stroke-width="1" opacity="0">
          <rect width="28" height="28" stroke="none"/>
          <rect x="0.5" y="0.5" width="27" height="27" fill="none"/>
        </g>
        <path id="search-location" d="M27.422,25.047,20.96,18.584a11.65,11.65,0,1,0-2.48,2.45l6.477,6.477a1.743,1.743,0,1,0,2.466-2.465ZM3.507,11.643a8.135,8.135,0,1,1,8.135,8.135A8.146,8.146,0,0,1,3.507,11.643Zm8.111-5.827a5.155,5.155,0,0,0-3.646,8.8L10.31,16.9a1.872,1.872,0,0,0,2.617,0l2.337-2.286a5.155,5.155,0,0,0-3.646-8.8Zm0,6.949a1.735,1.735,0,1,1,1.735-1.735A1.735,1.735,0,0,1,11.618,12.764Z" transform="translate(846.985 2543.979)" fill="#fff"/>
      </g>
    </g>
  </g>
</svg>
